  0
SECTION
  2
BLOCKS
  0
ENDSEC
  0
SECTION
  2
ENTITIES
  0
LINE
  8
0
 10
12.5
 20
-77.6301
 11
12.5
 21
-21.6379
  0
LINE
  8
0
 10
12.5
 20
-21.6379
 11
13.3957
 21
-21.1082
  0
LINE
  8
0
 10
13.3957
 20
-21.1082
 11
14.6946
 21
-20.2254
  0
LINE
  8
0
 10
14.6946
 20
-20.2254
 11
15.9356
 21
-19.2628
  0
LINE
  8
0
 10
15.9356
 20
-19.2628
 11
17.1137
 21
-18.2242
  0
LINE
  8
0
 10
17.1137
 20
-18.2242
 11
18.2242
 21
-17.1137
  0
LINE
  8
0
 10
18.2242
 20
-17.1137
 11
19.2628
 21
-15.9356
  0
LINE
  8
0
 10
19.2628
 20
-15.9356
 11
20.2254
 21
-14.6946
  0
LINE
  8
0
 10
20.2254
 20
-14.6946
 11
21.1082
 21
-13.3957
  0
LINE
  8
0
 10
21.1082
 20
-13.3957
 11
21.6379
 21
-12.5
  0
LINE
  8
0
 10
21.6379
 20
-12.5
 11
77.6172
 21
-12.5
  0
LINE
  8
0
 10
77.6172
 20
-12.5
 11
78.1191
 21
-9.86873
  0
LINE
  8
0
 10
78.1191
 20
-9.86873
 11
78.74
 21
0
  0
LINE
  8
0
 10
78.74
 20
0
 11
78.1191
 21
9.86873
  0
LINE
  8
0
 10
78.1191
 20
9.86873
 11
77.6172
 21
12.5
  0
LINE
  8
0
 10
77.6172
 20
12.5
 11
21.6379
 21
12.5
  0
LINE
  8
0
 10
21.6379
 20
12.5
 11
21.1082
 21
13.3957
  0
LINE
  8
0
 10
21.1082
 20
13.3957
 11
20.2254
 21
14.6946
  0
LINE
  8
0
 10
20.2254
 20
14.6946
 11
19.2628
 21
15.9356
  0
LINE
  8
0
 10
19.2628
 20
15.9356
 11
18.2242
 21
17.1137
  0
LINE
  8
0
 10
18.2242
 20
17.1137
 11
17.1137
 21
18.2242
  0
LINE
  8
0
 10
17.1137
 20
18.2242
 11
15.9356
 21
19.2628
  0
LINE
  8
0
 10
15.9356
 20
19.2628
 11
14.6946
 21
20.2254
  0
LINE
  8
0
 10
14.6946
 20
20.2254
 11
13.3957
 21
21.1082
  0
LINE
  8
0
 10
13.3957
 20
21.1082
 11
12.5
 21
21.6379
  0
LINE
  8
0
 10
12.5
 20
21.6379
 11
12.5
 21
77.6301
  0
LINE
  8
0
 10
12.5
 20
77.6301
 11
4.94412
 21
78.5846
  0
LINE
  8
0
 10
4.94412
 20
78.5846
 11
-4.94412
 21
78.5846
  0
LINE
  8
0
 10
-4.94412
 20
78.5846
 11
-12.5
 21
77.6301
  0
LINE
  8
0
 10
-12.5
 20
77.6301
 11
-12.5
 21
21.6379
  0
LINE
  8
0
 10
-12.5
 20
21.6379
 11
-13.3957
 21
21.1082
  0
LINE
  8
0
 10
-13.3957
 20
21.1082
 11
-14.6946
 21
20.2254
  0
LINE
  8
0
 10
-14.6946
 20
20.2254
 11
-15.9356
 21
19.2628
  0
LINE
  8
0
 10
-15.9356
 20
19.2628
 11
-17.1137
 21
18.2242
  0
LINE
  8
0
 10
-17.1137
 20
18.2242
 11
-18.2242
 21
17.1137
  0
LINE
  8
0
 10
-18.2242
 20
17.1137
 11
-19.2628
 21
15.9356
  0
LINE
  8
0
 10
-19.2628
 20
15.9356
 11
-20.2254
 21
14.6946
  0
LINE
  8
0
 10
-20.2254
 20
14.6946
 11
-21.1082
 21
13.3957
  0
LINE
  8
0
 10
-21.1082
 20
13.3957
 11
-21.6379
 21
12.5
  0
LINE
  8
0
 10
-21.6379
 20
12.5
 11
-77.6172
 21
12.5
  0
LINE
  8
0
 10
-77.6172
 20
12.5
 11
-78.1191
 21
9.86873
  0
LINE
  8
0
 10
-78.1191
 20
9.86873
 11
-78.74
 21
0
  0
LINE
  8
0
 10
-78.74
 20
0
 11
-78.1191
 21
-9.86873
  0
LINE
  8
0
 10
-78.1191
 20
-9.86873
 11
-77.6172
 21
-12.5
  0
LINE
  8
0
 10
-77.6172
 20
-12.5
 11
-21.6379
 21
-12.5
  0
LINE
  8
0
 10
-21.6379
 20
-12.5
 11
-21.1082
 21
-13.3957
  0
LINE
  8
0
 10
-21.1082
 20
-13.3957
 11
-20.2254
 21
-14.6946
  0
LINE
  8
0
 10
-20.2254
 20
-14.6946
 11
-19.2628
 21
-15.9356
  0
LINE
  8
0
 10
-19.2628
 20
-15.9356
 11
-18.2242
 21
-17.1137
  0
LINE
  8
0
 10
-18.2242
 20
-17.1137
 11
-17.1137
 21
-18.2242
  0
LINE
  8
0
 10
-17.1137
 20
-18.2242
 11
-15.9356
 21
-19.2628
  0
LINE
  8
0
 10
-15.9356
 20
-19.2628
 11
-14.6946
 21
-20.2254
  0
LINE
  8
0
 10
-14.6946
 20
-20.2254
 11
-13.3957
 21
-21.1082
  0
LINE
  8
0
 10
-13.3957
 20
-21.1082
 11
-12.5
 21
-21.6379
  0
LINE
  8
0
 10
-12.5
 20
-21.6379
 11
-12.5
 21
-77.6301
  0
LINE
  8
0
 10
-12.5
 20
-77.6301
 11
-4.94412
 21
-78.5846
  0
LINE
  8
0
 10
-4.94412
 20
-78.5846
 11
4.94412
 21
-78.5846
  0
LINE
  8
0
 10
4.94412
 20
-78.5846
 11
12.5
 21
-77.6301
  0
LINE
  8
0
 10
-0.463516
 20
14.5734
 11
-0.881668
 21
14.7865
  0
LINE
  8
0
 10
-0.881668
 20
14.7865
 11
-1.21352
 21
15.1183
  0
LINE
  8
0
 10
-1.21352
 20
15.1183
 11
-1.42657
 21
15.5365
  0
LINE
  8
0
 10
-1.42657
 20
15.5365
 11
-1.5
 21
16
  0
LINE
  8
0
 10
-1.5
 20
16
 11
-1.42657
 21
16.4635
  0
LINE
  8
0
 10
-1.42657
 20
16.4635
 11
-1.21352
 21
16.8817
  0
LINE
  8
0
 10
-1.21352
 20
16.8817
 11
-0.881668
 21
17.2135
  0
LINE
  8
0
 10
-0.881668
 20
17.2135
 11
-0.463516
 21
17.4266
  0
LINE
  8
0
 10
-0.463516
 20
17.4266
 11
0
 21
17.5
  0
LINE
  8
0
 10
0
 20
17.5
 11
0.463516
 21
17.4266
  0
LINE
  8
0
 10
0.463516
 20
17.4266
 11
0.881668
 21
17.2135
  0
LINE
  8
0
 10
0.881668
 20
17.2135
 11
1.21352
 21
16.8817
  0
LINE
  8
0
 10
1.21352
 20
16.8817
 11
1.42657
 21
16.4635
  0
LINE
  8
0
 10
1.42657
 20
16.4635
 11
1.5
 21
16
  0
LINE
  8
0
 10
1.5
 20
16
 11
1.42657
 21
15.5365
  0
LINE
  8
0
 10
1.42657
 20
15.5365
 11
1.21352
 21
15.1183
  0
LINE
  8
0
 10
1.21352
 20
15.1183
 11
0.881668
 21
14.7865
  0
LINE
  8
0
 10
0.881668
 20
14.7865
 11
0.463516
 21
14.5734
  0
LINE
  8
0
 10
0.463516
 20
14.5734
 11
0
 21
14.5
  0
LINE
  8
0
 10
0
 20
14.5
 11
-0.463516
 21
14.5734
  0
LINE
  8
0
 10
-0.439529
 20
-6.98618
 11
-1.31166
 21
-6.87601
  0
LINE
  8
0
 10
-1.31166
 20
-6.87601
 11
-2.16312
 21
-6.65739
  0
LINE
  8
0
 10
-2.16312
 20
-6.65739
 11
-2.98045
 21
-6.33379
  0
LINE
  8
0
 10
-2.98045
 20
-6.33379
 11
-3.75078
 21
-5.91029
  0
LINE
  8
0
 10
-3.75078
 20
-5.91029
 11
-4.46196
 21
-5.39359
  0
LINE
  8
0
 10
-4.46196
 20
-5.39359
 11
-5.10277
 21
-4.79182
  0
LINE
  8
0
 10
-5.10277
 20
-4.79182
 11
-5.66312
 21
-4.11449
  0
LINE
  8
0
 10
-5.66312
 20
-4.11449
 11
-6.13414
 21
-3.37227
  0
LINE
  8
0
 10
-6.13414
 20
-3.37227
 11
-6.50842
 21
-2.57686
  0
LINE
  8
0
 10
-6.50842
 20
-2.57686
 11
-6.78008
 21
-1.74081
  0
LINE
  8
0
 10
-6.78008
 20
-1.74081
 11
-6.94479
 21
-0.877319
  0
LINE
  8
0
 10
-6.94479
 20
-0.877319
 11
-7
 21
0
  0
LINE
  8
0
 10
-7
 20
0
 11
-6.94479
 21
0.877319
  0
LINE
  8
0
 10
-6.94479
 20
0.877319
 11
-6.78008
 21
1.74081
  0
LINE
  8
0
 10
-6.78008
 20
1.74081
 11
-6.50842
 21
2.57686
  0
LINE
  8
0
 10
-6.50842
 20
2.57686
 11
-6.13414
 21
3.37227
  0
LINE
  8
0
 10
-6.13414
 20
3.37227
 11
-5.66312
 21
4.11449
  0
LINE
  8
0
 10
-5.66312
 20
4.11449
 11
-5.10277
 21
4.79182
  0
LINE
  8
0
 10
-5.10277
 20
4.79182
 11
-4.46196
 21
5.39359
  0
LINE
  8
0
 10
-4.46196
 20
5.39359
 11
-3.75078
 21
5.91029
  0
LINE
  8
0
 10
-3.75078
 20
5.91029
 11
-2.98045
 21
6.33379
  0
LINE
  8
0
 10
-2.98045
 20
6.33379
 11
-2.16312
 21
6.65739
  0
LINE
  8
0
 10
-2.16312
 20
6.65739
 11
-1.31166
 21
6.87601
  0
LINE
  8
0
 10
-1.31166
 20
6.87601
 11
-0.439529
 21
6.98618
  0
LINE
  8
0
 10
-0.439529
 20
6.98618
 11
0.439529
 21
6.98618
  0
LINE
  8
0
 10
0.439529
 20
6.98618
 11
1.31166
 21
6.87601
  0
LINE
  8
0
 10
1.31166
 20
6.87601
 11
2.16312
 21
6.65739
  0
LINE
  8
0
 10
2.16312
 20
6.65739
 11
2.98045
 21
6.33379
  0
LINE
  8
0
 10
2.98045
 20
6.33379
 11
3.75078
 21
5.91029
  0
LINE
  8
0
 10
3.75078
 20
5.91029
 11
4.46196
 21
5.39359
  0
LINE
  8
0
 10
4.46196
 20
5.39359
 11
5.10277
 21
4.79182
  0
LINE
  8
0
 10
5.10277
 20
4.79182
 11
5.66312
 21
4.11449
  0
LINE
  8
0
 10
5.66312
 20
4.11449
 11
6.13414
 21
3.37227
  0
LINE
  8
0
 10
6.13414
 20
3.37227
 11
6.50842
 21
2.57686
  0
LINE
  8
0
 10
6.50842
 20
2.57686
 11
6.78008
 21
1.74081
  0
LINE
  8
0
 10
6.78008
 20
1.74081
 11
6.94479
 21
0.877319
  0
LINE
  8
0
 10
6.94479
 20
0.877319
 11
7
 21
0
  0
LINE
  8
0
 10
7
 20
0
 11
6.94479
 21
-0.877319
  0
LINE
  8
0
 10
6.94479
 20
-0.877319
 11
6.78008
 21
-1.74081
  0
LINE
  8
0
 10
6.78008
 20
-1.74081
 11
6.50842
 21
-2.57686
  0
LINE
  8
0
 10
6.50842
 20
-2.57686
 11
6.13414
 21
-3.37227
  0
LINE
  8
0
 10
6.13414
 20
-3.37227
 11
5.66312
 21
-4.11449
  0
LINE
  8
0
 10
5.66312
 20
-4.11449
 11
5.10277
 21
-4.79182
  0
LINE
  8
0
 10
5.10277
 20
-4.79182
 11
4.46196
 21
-5.39359
  0
LINE
  8
0
 10
4.46196
 20
-5.39359
 11
3.75078
 21
-5.91029
  0
LINE
  8
0
 10
3.75078
 20
-5.91029
 11
2.98045
 21
-6.33379
  0
LINE
  8
0
 10
2.98045
 20
-6.33379
 11
2.16312
 21
-6.65739
  0
LINE
  8
0
 10
2.16312
 20
-6.65739
 11
1.31166
 21
-6.87601
  0
LINE
  8
0
 10
1.31166
 20
-6.87601
 11
0.439529
 21
-6.98618
  0
LINE
  8
0
 10
0.439529
 20
-6.98618
 11
-0.439529
 21
-6.98618
  0
LINE
  8
0
 10
-16.4635
 20
-1.42657
 11
-16.8817
 21
-1.21352
  0
LINE
  8
0
 10
-16.8817
 20
-1.21352
 11
-17.2135
 21
-0.881668
  0
LINE
  8
0
 10
-17.2135
 20
-0.881668
 11
-17.4266
 21
-0.463516
  0
LINE
  8
0
 10
-17.4266
 20
-0.463516
 11
-17.5
 21
0
  0
LINE
  8
0
 10
-17.5
 20
0
 11
-17.4266
 21
0.463516
  0
LINE
  8
0
 10
-17.4266
 20
0.463516
 11
-17.2135
 21
0.881668
  0
LINE
  8
0
 10
-17.2135
 20
0.881668
 11
-16.8817
 21
1.21352
  0
LINE
  8
0
 10
-16.8817
 20
1.21352
 11
-16.4635
 21
1.42657
  0
LINE
  8
0
 10
-16.4635
 20
1.42657
 11
-16
 21
1.5
  0
LINE
  8
0
 10
-16
 20
1.5
 11
-15.5365
 21
1.42657
  0
LINE
  8
0
 10
-15.5365
 20
1.42657
 11
-15.1183
 21
1.21352
  0
LINE
  8
0
 10
-15.1183
 20
1.21352
 11
-14.7865
 21
0.881668
  0
LINE
  8
0
 10
-14.7865
 20
0.881668
 11
-14.5734
 21
0.463516
  0
LINE
  8
0
 10
-14.5734
 20
0.463516
 11
-14.5
 21
0
  0
LINE
  8
0
 10
-14.5
 20
0
 11
-14.5734
 21
-0.463516
  0
LINE
  8
0
 10
-14.5734
 20
-0.463516
 11
-14.7865
 21
-0.881668
  0
LINE
  8
0
 10
-14.7865
 20
-0.881668
 11
-15.1183
 21
-1.21352
  0
LINE
  8
0
 10
-15.1183
 20
-1.21352
 11
-15.5365
 21
-1.42657
  0
LINE
  8
0
 10
-15.5365
 20
-1.42657
 11
-16
 21
-1.5
  0
LINE
  8
0
 10
-16
 20
-1.5
 11
-16.4635
 21
-1.42657
  0
LINE
  8
0
 10
15.5365
 20
-1.42657
 11
15.1183
 21
-1.21352
  0
LINE
  8
0
 10
15.1183
 20
-1.21352
 11
14.7865
 21
-0.881668
  0
LINE
  8
0
 10
14.7865
 20
-0.881668
 11
14.5734
 21
-0.463516
  0
LINE
  8
0
 10
14.5734
 20
-0.463516
 11
14.5
 21
0
  0
LINE
  8
0
 10
14.5
 20
0
 11
14.5734
 21
0.463516
  0
LINE
  8
0
 10
14.5734
 20
0.463516
 11
14.7865
 21
0.881668
  0
LINE
  8
0
 10
14.7865
 20
0.881668
 11
15.1183
 21
1.21352
  0
LINE
  8
0
 10
15.1183
 20
1.21352
 11
15.5365
 21
1.42657
  0
LINE
  8
0
 10
15.5365
 20
1.42657
 11
16
 21
1.5
  0
LINE
  8
0
 10
16
 20
1.5
 11
16.4635
 21
1.42657
  0
LINE
  8
0
 10
16.4635
 20
1.42657
 11
16.8817
 21
1.21352
  0
LINE
  8
0
 10
16.8817
 20
1.21352
 11
17.2135
 21
0.881668
  0
LINE
  8
0
 10
17.2135
 20
0.881668
 11
17.4266
 21
0.463516
  0
LINE
  8
0
 10
17.4266
 20
0.463516
 11
17.5
 21
0
  0
LINE
  8
0
 10
17.5
 20
0
 11
17.4266
 21
-0.463516
  0
LINE
  8
0
 10
17.4266
 20
-0.463516
 11
17.2135
 21
-0.881668
  0
LINE
  8
0
 10
17.2135
 20
-0.881668
 11
16.8817
 21
-1.21352
  0
LINE
  8
0
 10
16.8817
 20
-1.21352
 11
16.4635
 21
-1.42657
  0
LINE
  8
0
 10
16.4635
 20
-1.42657
 11
16
 21
-1.5
  0
LINE
  8
0
 10
16
 20
-1.5
 11
15.5365
 21
-1.42657
  0
LINE
  8
0
 10
-0.463516
 20
-17.4266
 11
-0.881668
 21
-17.2135
  0
LINE
  8
0
 10
-0.881668
 20
-17.2135
 11
-1.21352
 21
-16.8817
  0
LINE
  8
0
 10
-1.21352
 20
-16.8817
 11
-1.42657
 21
-16.4635
  0
LINE
  8
0
 10
-1.42657
 20
-16.4635
 11
-1.5
 21
-16
  0
LINE
  8
0
 10
-1.5
 20
-16
 11
-1.42657
 21
-15.5365
  0
LINE
  8
0
 10
-1.42657
 20
-15.5365
 11
-1.21352
 21
-15.1183
  0
LINE
  8
0
 10
-1.21352
 20
-15.1183
 11
-0.881668
 21
-14.7865
  0
LINE
  8
0
 10
-0.881668
 20
-14.7865
 11
-0.463516
 21
-14.5734
  0
LINE
  8
0
 10
-0.463516
 20
-14.5734
 11
0
 21
-14.5
  0
LINE
  8
0
 10
0
 20
-14.5
 11
0.463516
 21
-14.5734
  0
LINE
  8
0
 10
0.463516
 20
-14.5734
 11
0.881668
 21
-14.7865
  0
LINE
  8
0
 10
0.881668
 20
-14.7865
 11
1.21352
 21
-15.1183
  0
LINE
  8
0
 10
1.21352
 20
-15.1183
 11
1.42657
 21
-15.5365
  0
LINE
  8
0
 10
1.42657
 20
-15.5365
 11
1.5
 21
-16
  0
LINE
  8
0
 10
1.5
 20
-16
 11
1.42657
 21
-16.4635
  0
LINE
  8
0
 10
1.42657
 20
-16.4635
 11
1.21352
 21
-16.8817
  0
LINE
  8
0
 10
1.21352
 20
-16.8817
 11
0.881668
 21
-17.2135
  0
LINE
  8
0
 10
0.881668
 20
-17.2135
 11
0.463516
 21
-17.4266
  0
LINE
  8
0
 10
0.463516
 20
-17.4266
 11
0
 21
-17.5
  0
LINE
  8
0
 10
0
 20
-17.5
 11
-0.463516
 21
-17.4266
  0
ENDSEC
  0
SECTION
  2
OBJECTS
  0
DICTIONARY
  0
ENDSEC
  0
EOF
